<svg width="44" height="44" viewBox="0 0 44 44" fill="none" xmlns="http://www.w3.org/2000/svg">
<mask id="mask0_458_3734" style="mask-type:alpha" maskUnits="userSpaceOnUse" x="0" y="0" width="44" height="44">
<rect width="44" height="44" fill="#D9D9D9"/>
</mask>
<g mask="url(#mask0_458_3734)">
<path d="M9.16667 38.5C8.15833 38.5 7.29514 38.141 6.57708 37.4229C5.85903 36.7049 5.5 35.8417 5.5 34.8333V11.9625C5.5 11.5347 5.56875 11.1222 5.70625 10.725C5.84375 10.3278 6.05 9.96111 6.325 9.625L8.61667 6.82917C8.95278 6.40139 9.37292 6.07292 9.87708 5.84375C10.3813 5.61458 10.9083 5.5 11.4583 5.5H32.5417C33.0917 5.5 33.6188 5.61458 34.1229 5.84375C34.6271 6.07292 35.0472 6.40139 35.3833 6.82917L37.675 9.625C37.95 9.96111 38.1563 10.3278 38.2938 10.725C38.4313 11.1222 38.5 11.5347 38.5 11.9625V34.8333C38.5 35.8417 38.141 36.7049 37.4229 37.4229C36.7049 38.141 35.8417 38.5 34.8333 38.5H9.16667ZM9.9 11H34.1L32.5417 9.16667H11.4583L9.9 11ZM22 18.3333C21.4806 18.3333 21.0451 18.509 20.6938 18.8604C20.3424 19.2118 20.1667 19.6472 20.1667 20.1667V26.0333L18.5167 24.3833C18.1806 24.0472 17.7528 23.8792 17.2333 23.8792C16.7139 23.8792 16.2861 24.0472 15.95 24.3833C15.6139 24.7194 15.4458 25.1472 15.4458 25.6667C15.4458 26.1861 15.6139 26.6139 15.95 26.95L20.7167 31.7167C21.0833 32.0833 21.5111 32.2667 22 32.2667C22.4889 32.2667 22.9167 32.0833 23.2833 31.7167L28.05 26.95C28.3861 26.6139 28.5542 26.1861 28.5542 25.6667C28.5542 25.1472 28.3861 24.7194 28.05 24.3833C27.7139 24.0472 27.2861 23.8792 26.7667 23.8792C26.2472 23.8792 25.8194 24.0472 25.4833 24.3833L23.8333 26.0333V20.1667C23.8333 19.6472 23.6576 19.2118 23.3063 18.8604C22.9549 18.509 22.5194 18.3333 22 18.3333Z" fill="#888585"/>
</g>
</svg>
