<svg width="44" height="44" viewBox="0 0 44 44" fill="none" xmlns="http://www.w3.org/2000/svg">
<mask id="mask0_458_3737" style="mask-type:alpha" maskUnits="userSpaceOnUse" x="0" y="0" width="44" height="44">
<rect width="44" height="44" fill="#D9D9D9"/>
</mask>
<g mask="url(#mask0_458_3737)">
<path d="M9.16671 36.6667H34.8334C35.3528 36.6667 35.7882 36.8424 36.1396 37.1938C36.491 37.5452 36.6667 37.9806 36.6667 38.5001C36.6667 39.0195 36.491 39.4549 36.1396 39.8063C35.7882 40.1577 35.3528 40.3334 34.8334 40.3334H9.16671C8.64726 40.3334 8.21185 40.1577 7.86046 39.8063C7.50907 39.4549 7.33337 39.0195 7.33337 38.5001C7.33337 37.9806 7.50907 37.5452 7.86046 37.1938C8.21185 36.8424 8.64726 36.6667 9.16671 36.6667ZM22 31.8542C21.725 31.8542 21.4577 31.7931 21.198 31.6709C20.9382 31.5487 20.7167 31.3654 20.5334 31.1209L11.4584 19.4792C11 18.8681 10.9389 18.2188 11.275 17.5313C11.6112 16.8438 12.1612 16.5001 12.925 16.5001H16.5V5.50008C16.5 4.98064 16.6757 4.54522 17.0271 4.19383C17.3785 3.84244 17.8139 3.66675 18.3334 3.66675H25.6667C26.1862 3.66675 26.6216 3.84244 26.973 4.19383C27.3243 4.54522 27.5 4.98064 27.5 5.50008V16.5001H31.075C31.8389 16.5001 32.3889 16.8438 32.725 17.5313C33.0612 18.2188 33 18.8681 32.5417 19.4792L23.4667 31.1209C23.2834 31.3654 23.0618 31.5487 22.8021 31.6709C22.5424 31.7931 22.275 31.8542 22 31.8542Z" fill="#888585"/>
</g>
</svg>
