<svg width="44" height="44" viewBox="0 0 44 44" fill="none" xmlns="http://www.w3.org/2000/svg">
<mask id="mask0_458_3731" style="mask-type:alpha" maskUnits="userSpaceOnUse" x="0" y="0" width="44" height="44">
<rect width="44" height="44" fill="#D9D9D9"/>
</mask>
<g mask="url(#mask0_458_3731)">
<path d="M16.5 36.6666C15.4917 36.6666 14.6285 36.3076 13.9105 35.5895C13.1924 34.8714 12.8334 34.0083 12.8334 32.9999C12.8334 31.9916 13.1924 31.1284 13.9105 30.4103C14.6285 29.6923 15.4917 29.3333 16.5 29.3333C17.5084 29.3333 18.3716 29.6923 19.0896 30.4103C19.8077 31.1284 20.1667 31.9916 20.1667 32.9999C20.1667 34.0083 19.8077 34.8714 19.0896 35.5895C18.3716 36.3076 17.5084 36.6666 16.5 36.6666ZM27.5 36.6666C26.4917 36.6666 25.6285 36.3076 24.9105 35.5895C24.1924 34.8714 23.8334 34.0083 23.8334 32.9999C23.8334 31.9916 24.1924 31.1284 24.9105 30.4103C25.6285 29.6923 26.4917 29.3333 27.5 29.3333C28.5084 29.3333 29.3716 29.6923 30.0896 30.4103C30.8077 31.1284 31.1667 31.9916 31.1667 32.9999C31.1667 34.0083 30.8077 34.8714 30.0896 35.5895C29.3716 36.3076 28.5084 36.6666 27.5 36.6666ZM16.5 25.6666C15.4917 25.6666 14.6285 25.3076 13.9105 24.5895C13.1924 23.8714 12.8334 23.0083 12.8334 21.9999C12.8334 20.9916 13.1924 20.1284 13.9105 19.4103C14.6285 18.6923 15.4917 18.3333 16.5 18.3333C17.5084 18.3333 18.3716 18.6923 19.0896 19.4103C19.8077 20.1284 20.1667 20.9916 20.1667 21.9999C20.1667 23.0083 19.8077 23.8714 19.0896 24.5895C18.3716 25.3076 17.5084 25.6666 16.5 25.6666ZM27.5 25.6666C26.4917 25.6666 25.6285 25.3076 24.9105 24.5895C24.1924 23.8714 23.8334 23.0083 23.8334 21.9999C23.8334 20.9916 24.1924 20.1284 24.9105 19.4103C25.6285 18.6923 26.4917 18.3333 27.5 18.3333C28.5084 18.3333 29.3716 18.6923 30.0896 19.4103C30.8077 20.1284 31.1667 20.9916 31.1667 21.9999C31.1667 23.0083 30.8077 23.8714 30.0896 24.5895C29.3716 25.3076 28.5084 25.6666 27.5 25.6666ZM16.5 14.6666C15.4917 14.6666 14.6285 14.3076 13.9105 13.5895C13.1924 12.8714 12.8334 12.0083 12.8334 10.9999C12.8334 9.99159 13.1924 9.12839 13.9105 8.41034C14.6285 7.69228 15.4917 7.33325 16.5 7.33325C17.5084 7.33325 18.3716 7.69228 19.0896 8.41034C19.8077 9.12839 20.1667 9.99159 20.1667 10.9999C20.1667 12.0083 19.8077 12.8714 19.0896 13.5895C18.3716 14.3076 17.5084 14.6666 16.5 14.6666ZM27.5 14.6666C26.4917 14.6666 25.6285 14.3076 24.9105 13.5895C24.1924 12.8714 23.8334 12.0083 23.8334 10.9999C23.8334 9.99159 24.1924 9.12839 24.9105 8.41034C25.6285 7.69228 26.4917 7.33325 27.5 7.33325C28.5084 7.33325 29.3716 7.69228 30.0896 8.41034C30.8077 9.12839 31.1667 9.99159 31.1667 10.9999C31.1667 12.0083 30.8077 12.8714 30.0896 13.5895C29.3716 14.3076 28.5084 14.6666 27.5 14.6666Z" fill="#888585"/>
</g>
</svg>
