<svg width="44" height="44" viewBox="0 0 44 44" fill="none" xmlns="http://www.w3.org/2000/svg">
<mask id="mask0_458_3728" style="mask-type:alpha" maskUnits="userSpaceOnUse" x="0" y="0" width="44" height="44">
<rect width="44" height="44" fill="#D9D9D9"/>
</mask>
<g mask="url(#mask0_458_3728)">
<path d="M8.25013 17.5543L3.8043 21.9543C3.5293 22.1987 3.20846 22.3286 2.8418 22.3439C2.47513 22.3592 2.1543 22.2293 1.8793 21.9543C1.6043 21.6793 1.4668 21.3585 1.4668 20.9918C1.4668 20.6251 1.6043 20.3043 1.8793 20.0293L6.2793 15.5835H3.20846C2.81124 15.5835 2.48277 15.4536 2.22305 15.1939C1.96332 14.9342 1.83346 14.6057 1.83346 14.2085C1.83346 13.8112 1.96332 13.4828 2.22305 13.223C2.48277 12.9633 2.81124 12.8335 3.20846 12.8335H9.1668C9.68624 12.8335 10.1217 13.0092 10.473 13.3605C10.8244 13.7119 11.0001 14.1474 11.0001 14.6668V20.6251C11.0001 21.0224 10.8703 21.3508 10.6105 21.6105C10.3508 21.8703 10.0224 22.0001 9.62513 22.0001C9.22791 22.0001 8.89944 21.8703 8.63971 21.6105C8.37999 21.3508 8.25013 21.0224 8.25013 20.6251V17.5543ZM17.5085 8.25013H20.6251C21.0224 8.25013 21.3508 8.37999 21.6105 8.63971C21.8703 8.89944 22.0001 9.22791 22.0001 9.62513C22.0001 10.0224 21.8703 10.3508 21.6105 10.6105C21.3508 10.8703 21.0224 11.0001 20.6251 11.0001H14.6668C14.1474 11.0001 13.7119 10.8244 13.3605 10.473C13.0092 10.1217 12.8335 9.68624 12.8335 9.1668V3.20846C12.8335 2.81124 12.9633 2.48277 13.223 2.22305C13.4828 1.96332 13.8112 1.83346 14.2085 1.83346C14.6057 1.83346 14.9342 1.96332 15.1939 2.22305C15.4536 2.48277 15.5835 2.81124 15.5835 3.20846V6.32513L19.9835 1.8793C20.2585 1.6043 20.5793 1.4668 20.946 1.4668C21.3126 1.4668 21.6335 1.6043 21.9085 1.8793C22.1835 2.1543 22.321 2.48277 22.321 2.86471C22.321 3.24666 22.1835 3.57513 21.9085 3.85013L17.5085 8.25013ZM27.1793 42.1668C26.446 42.1668 25.7432 42.0293 25.071 41.7543C24.3987 41.4793 23.8029 41.0821 23.2835 40.5626L15.2168 32.4501C14.8501 32.0835 14.6821 31.6328 14.7126 31.098C14.7432 30.5633 14.9418 30.1126 15.3085 29.746C15.7974 29.2571 16.3703 28.9286 17.0272 28.7605C17.6842 28.5925 18.3335 28.6001 18.9751 28.7835L22.0001 29.6543V14.6668C22.0001 14.1474 22.1758 13.7119 22.5272 13.3605C22.8786 13.0092 23.314 12.8335 23.8335 12.8335C24.3529 12.8335 24.7883 13.0092 25.1397 13.3605C25.4911 13.7119 25.6668 14.1474 25.6668 14.6668V27.5001H27.5001V22.0001C27.5001 21.4807 27.6758 21.0453 28.0272 20.6939C28.3786 20.3425 28.814 20.1668 29.3335 20.1668C29.8529 20.1668 30.2883 20.3425 30.6397 20.6939C30.9911 21.0453 31.1668 21.4807 31.1668 22.0001V27.5001H33.0001V23.8335C33.0001 23.314 33.1758 22.8786 33.5272 22.5272C33.8786 22.1758 34.314 22.0001 34.8335 22.0001C35.3529 22.0001 35.7883 22.1758 36.1397 22.5272C36.4911 22.8786 36.6668 23.314 36.6668 23.8335V27.5001H38.5001C38.5001 26.9807 38.6758 26.5453 39.0272 26.1939C39.3786 25.8425 39.814 25.6668 40.3335 25.6668C40.8529 25.6668 41.2883 25.8425 41.6397 26.1939C41.9911 26.5453 42.1668 26.9807 42.1668 27.5001V34.8335C42.1668 36.8501 41.4487 38.5765 40.0126 40.0126C38.5765 41.4487 36.8501 42.1668 34.8335 42.1668H27.1793Z" fill="#888585"/>
</g>
</svg>
