<svg width="20" height="20" viewBox="0 0 20 20" fill="none" xmlns="http://www.w3.org/2000/svg">
<path d="M9 9.8V13C9 13.2833 9.09583 13.5208 9.2875 13.7125C9.47917 13.9042 9.71667 14 10 14C10.2833 14 10.5208 13.9042 10.7125 13.7125C10.9042 13.5208 11 13.2833 11 13V9.8L11.9 10.7C12.0833 10.8833 12.3167 10.975 12.6 10.975C12.8833 10.975 13.1167 10.8833 13.3 10.7C13.4833 10.5167 13.575 10.2833 13.575 10C13.575 9.71667 13.4833 9.48333 13.3 9.3L10.7 6.7C10.5 6.5 10.2667 6.4 10 6.4C9.73333 6.4 9.5 6.5 9.3 6.7L6.7 9.3C6.51667 9.48333 6.425 9.71667 6.425 10C6.425 10.2833 6.51667 10.5167 6.7 10.7C6.88333 10.8833 7.11667 10.975 7.4 10.975C7.68333 10.975 7.91667 10.8833 8.1 10.7L9 9.8ZM10 20C8.61667 20 7.31667 19.7375 6.1 19.2125C4.88333 18.6875 3.825 17.975 2.925 17.075C2.025 16.175 1.3125 15.1167 0.7875 13.9C0.2625 12.6833 0 11.3833 0 10C0 8.61667 0.2625 7.31667 0.7875 6.1C1.3125 4.88333 2.025 3.825 2.925 2.925C3.825 2.025 4.88333 1.3125 6.1 0.7875C7.31667 0.2625 8.61667 0 10 0C11.3833 0 12.6833 0.2625 13.9 0.7875C15.1167 1.3125 16.175 2.025 17.075 2.925C17.975 3.825 18.6875 4.88333 19.2125 6.1C19.7375 7.31667 20 8.61667 20 10C20 11.3833 19.7375 12.6833 19.2125 13.9C18.6875 15.1167 17.975 16.175 17.075 17.075C16.175 17.975 15.1167 18.6875 13.9 19.2125C12.6833 19.7375 11.3833 20 10 20Z" fill="#888585"/>
</svg>
