<svg width="1068" height="575" viewBox="0 0 1068 575" fill="none" xmlns="http://www.w3.org/2000/svg">
<path d="M83.5869 54.7178H139.394V0H142.394V54.7178H198.201V0H201.201V54.7178H257.008V0H260.008V54.7178H315.814V0H318.814V54.7178H374.621V0H377.621V54.7178H433.428V0H436.428V54.7178H492.235V0H495.235V54.7178H551.042V0H554.042V54.7178H609.849V0H612.849V54.7178H668.655V0H671.655V54.7178H727.462V0H730.462V54.7178H786.269V0H789.269V54.7178H845.076V0H848.076V54.7178H903.883V0H906.883V54.7178H962.689V0H965.689V54.7178H1021.5V0H1024.5V54.7178H1080.3V0H1083.3V54.7178H1139.11V0H1142.11V54.7178H1197.92V0H1200.92V54.7178H1256.72V0H1259.72V54.7178H1315.53V0H1318.53V54.7178H1374.34V0H1377.34V54.7178H1433.14V0H1436.14V54.7178H1517V57.7178H1436.14V112.436H1517V115.436H1436.14V170.153H1517V173.153H1436.14V227.871H1517V230.871H1436.14V285.589H1517V288.589H1436.14V343.307H1517V346.307H1436.14V401.024H1517V404.024H1436.14V458.742H1517V461.742H1436.14V516.46H1517V519.46H1436.14V575H1433.14V519.46H1377.34V575H1374.34V519.46H1318.53V575H1315.53V519.46H1259.72V575H1256.72V519.46H1200.92V575H1197.92V519.46H1142.11V575H1139.11V519.46H1083.3V575H1080.3V519.46H1024.5V575H1021.5V519.46H965.689V575H962.689V519.46H906.883V575H903.883V519.46H848.075V575H845.075V519.46H789.269V575H786.269V519.46H730.462V575H727.462V519.46H671.655V575H668.655V519.46H612.849V575H609.849V519.46H554.042V575H551.042V519.46H495.234V575H492.234V519.46H436.428V575H433.428V519.46H377.621V575H374.621V519.46H318.814V575H315.814V519.46H260.008V575H257.008V519.46H201.201V575H198.201V519.46H142.394V575H139.394V519.46H83.5869V575H80.5869V519.46H0V516.46H80.5869V461.742H0V458.742H80.5869V404.024H0V401.024H80.5869V346.307H0V343.307H80.5869V288.589H0V285.589H80.5869V230.871H0V227.871H80.5869V173.153H0V170.153H80.5869V115.436H0V112.436H80.5869V57.7178H0V54.7178H80.5869V0H83.5869V54.7178ZM83.5869 516.46H139.394V461.742H83.5869V516.46ZM142.394 516.46H198.201V461.742H142.394V516.46ZM201.201 516.46H257.008V461.742H201.201V516.46ZM260.008 516.46H315.814V461.742H260.008V516.46ZM318.814 516.46H374.621V461.742H318.814V516.46ZM377.621 516.46H433.428V461.742H377.621V516.46ZM436.428 516.46H492.235V461.742H436.428V516.46ZM495.235 516.46H551.042V461.742H495.235V516.46ZM554.042 516.46H609.849V461.742H554.042V516.46ZM612.849 516.46H668.655V461.742H612.849V516.46ZM671.655 516.46H727.462V461.742H671.655V516.46ZM730.462 516.46H786.269V461.742H730.462V516.46ZM789.269 516.46H845.076V461.742H789.269V516.46ZM848.076 516.46H903.883V461.742H848.076V516.46ZM906.883 516.46H962.689V461.742H906.883V516.46ZM965.689 516.46H1021.5V461.742H965.689V516.46ZM1024.5 516.46H1080.3V461.742H1024.5V516.46ZM1083.3 516.46H1139.11V461.742H1083.3V516.46ZM1142.11 516.46H1197.92V461.742H1142.11V516.46ZM1200.92 516.46H1256.72V461.742H1200.92V516.46ZM1259.72 516.46H1315.53V461.742H1259.72V516.46ZM1318.53 516.46H1374.34V461.742H1318.53V516.46ZM1377.34 516.46H1433.14V461.742H1377.34V516.46ZM83.5869 458.742H139.394V404.024H83.5869V458.742ZM142.394 458.742H198.201V404.024H142.394V458.742ZM201.201 458.742H257.008V404.024H201.201V458.742ZM260.008 458.742H315.814V404.024H260.008V458.742ZM318.814 458.742H374.621V404.024H318.814V458.742ZM377.621 458.742H433.428V404.024H377.621V458.742ZM436.428 458.742H492.235V404.024H436.428V458.742ZM495.235 458.742H551.042V404.024H495.235V458.742ZM554.042 458.742H609.849V404.024H554.042V458.742ZM612.849 458.742H668.655V404.024H612.849V458.742ZM671.655 458.742H727.462V404.024H671.655V458.742ZM730.462 458.742H786.269V404.024H730.462V458.742ZM789.269 458.742H845.076V404.024H789.269V458.742ZM848.076 458.742H903.883V404.024H848.076V458.742ZM906.883 458.742H962.689V404.024H906.883V458.742ZM965.689 458.742H1021.5V404.024H965.689V458.742ZM1024.5 458.742H1080.3V404.024H1024.5V458.742ZM1083.3 458.742H1139.11V404.024H1083.3V458.742ZM1142.11 458.742H1197.92V404.024H1142.11V458.742ZM1200.92 458.742H1256.72V404.024H1200.92V458.742ZM1259.72 458.742H1315.53V404.024H1259.72V458.742ZM1318.53 458.742H1374.34V404.024H1318.53V458.742ZM1377.34 458.742H1433.14V404.024H1377.34V458.742ZM83.5869 401.024H139.394V346.307H83.5869V401.024ZM142.394 401.024H198.201V346.307H142.394V401.024ZM201.201 401.024H257.008V346.307H201.201V401.024ZM260.008 401.024H315.814V346.307H260.008V401.024ZM318.814 401.024H374.621V346.307H318.814V401.024ZM377.621 401.024H433.428V346.307H377.621V401.024ZM436.428 401.024H492.235V346.307H436.428V401.024ZM495.235 401.024H551.042V346.307H495.235V401.024ZM554.042 401.024H609.849V346.307H554.042V401.024ZM612.849 401.024H668.655V346.307H612.849V401.024ZM671.655 401.024H727.462V346.307H671.655V401.024ZM730.462 401.024H786.269V346.307H730.462V401.024ZM789.269 401.024H845.076V346.307H789.269V401.024ZM848.076 401.024H903.883V346.307H848.076V401.024ZM906.883 401.024H962.689V346.307H906.883V401.024ZM965.689 401.024H1021.5V346.307H965.689V401.024ZM1024.5 401.024H1080.3V346.307H1024.5V401.024ZM1083.3 401.024H1139.11V346.307H1083.3V401.024ZM1142.11 401.024H1197.92V346.307H1142.11V401.024ZM1200.92 401.024H1256.72V346.307H1200.92V401.024ZM1259.72 401.024H1315.53V346.307H1259.72V401.024ZM1318.53 401.024H1374.34V346.307H1318.53V401.024ZM1377.34 401.024H1433.14V346.307H1377.34V401.024ZM83.5869 343.307H139.394V288.589H83.5869V343.307ZM142.394 343.307H198.201V288.589H142.394V343.307ZM201.201 343.307H257.008V288.589H201.201V343.307ZM260.008 343.307H315.814V288.589H260.008V343.307ZM318.814 343.307H374.621V288.589H318.814V343.307ZM377.621 343.307H433.428V288.589H377.621V343.307ZM436.428 343.307H492.235V288.589H436.428V343.307ZM495.235 343.307H551.042V288.589H495.235V343.307ZM554.042 343.307H609.849V288.589H554.042V343.307ZM612.849 343.307H668.655V288.589H612.849V343.307ZM671.655 343.307H727.462V288.589H671.655V343.307ZM730.462 343.307H786.269V288.589H730.462V343.307ZM789.269 343.307H845.076V288.589H789.269V343.307ZM848.076 343.307H903.883V288.589H848.076V343.307ZM906.883 343.307H962.689V288.589H906.883V343.307ZM965.689 343.307H1021.5V288.589H965.689V343.307ZM1024.5 343.307H1080.3V288.589H1024.5V343.307ZM1083.3 343.307H1139.11V288.589H1083.3V343.307ZM1142.11 343.307H1197.92V288.589H1142.11V343.307ZM1200.92 343.307H1256.72V288.589H1200.92V343.307ZM1259.72 343.307H1315.53V288.589H1259.72V343.307ZM1318.53 343.307H1374.34V288.589H1318.53V343.307ZM1377.34 343.307H1433.14V288.589H1377.34V343.307ZM83.5869 285.589H139.394V230.871H83.5869V285.589ZM142.394 285.589H198.201V230.871H142.394V285.589ZM201.201 285.589H257.008V230.871H201.201V285.589ZM260.008 285.589H315.814V230.871H260.008V285.589ZM318.814 285.589H374.621V230.871H318.814V285.589ZM377.621 285.589H433.428V230.871H377.621V285.589ZM436.428 285.589H492.235V230.871H436.428V285.589ZM495.235 285.589H551.042V230.871H495.235V285.589ZM554.042 285.589H609.849V230.871H554.042V285.589ZM612.849 285.589H668.655V230.871H612.849V285.589ZM671.655 285.589H727.462V230.871H671.655V285.589ZM730.462 285.589H786.269V230.871H730.462V285.589ZM789.269 285.589H845.076V230.871H789.269V285.589ZM848.076 285.589H903.883V230.871H848.076V285.589ZM906.883 285.589H962.689V230.871H906.883V285.589ZM965.689 285.589H1021.5V230.871H965.689V285.589ZM1024.5 285.589H1080.3V230.871H1024.5V285.589ZM1083.3 285.589H1139.11V230.871H1083.3V285.589ZM1142.11 285.589H1197.92V230.871H1142.11V285.589ZM1200.92 285.589H1256.72V230.871H1200.92V285.589ZM1259.72 285.589H1315.53V230.871H1259.72V285.589ZM1318.53 285.589H1374.34V230.871H1318.53V285.589ZM1377.34 285.589H1433.14V230.871H1377.34V285.589ZM83.5869 227.871H139.394V173.153H83.5869V227.871ZM142.394 227.871H198.201V173.153H142.394V227.871ZM201.201 227.871H257.008V173.153H201.201V227.871ZM260.008 227.871H315.814V173.153H260.008V227.871ZM318.814 227.871H374.621V173.153H318.814V227.871ZM377.621 227.871H433.428V173.153H377.621V227.871ZM436.428 227.871H492.235V173.153H436.428V227.871ZM495.235 227.871H551.042V173.153H495.235V227.871ZM554.042 227.871H609.849V173.153H554.042V227.871ZM612.849 227.871H668.655V173.153H612.849V227.871ZM671.655 227.871H727.462V173.153H671.655V227.871ZM730.462 227.871H786.269V173.153H730.462V227.871ZM789.269 227.871H845.076V173.153H789.269V227.871ZM848.076 227.871H903.883V173.153H848.076V227.871ZM906.883 227.871H962.689V173.153H906.883V227.871ZM965.689 227.871H1021.5V173.153H965.689V227.871ZM1024.5 227.871H1080.3V173.153H1024.5V227.871ZM1083.3 227.871H1139.11V173.153H1083.3V227.871ZM1142.11 227.871H1197.92V173.153H1142.11V227.871ZM1200.92 227.871H1256.72V173.153H1200.92V227.871ZM1259.72 227.871H1315.53V173.153H1259.72V227.871ZM1318.53 227.871H1374.34V173.153H1318.53V227.871ZM1377.34 227.871H1433.14V173.153H1377.34V227.871ZM83.5869 170.153H139.394V115.436H83.5869V170.153ZM142.394 170.153H198.201V115.436H142.394V170.153ZM201.201 170.153H257.008V115.436H201.201V170.153ZM260.008 170.153H315.814V115.436H260.008V170.153ZM318.814 170.153H374.621V115.436H318.814V170.153ZM377.621 170.153H433.428V115.436H377.621V170.153ZM436.428 170.153H492.235V115.436H436.428V170.153ZM495.235 170.153H551.042V115.436H495.235V170.153ZM554.042 170.153H609.849V115.436H554.042V170.153ZM612.849 170.153H668.655V115.436H612.849V170.153ZM671.655 170.153H727.462V115.436H671.655V170.153ZM730.462 170.153H786.269V115.436H730.462V170.153ZM789.269 170.153H845.076V115.436H789.269V170.153ZM848.076 170.153H903.883V115.436H848.076V170.153ZM906.883 170.153H962.689V115.436H906.883V170.153ZM965.689 170.153H1021.5V115.436H965.689V170.153ZM1024.5 170.153H1080.3V115.436H1024.5V170.153ZM1083.3 170.153H1139.11V115.436H1083.3V170.153ZM1142.11 170.153H1197.92V115.436H1142.11V170.153ZM1200.92 170.153H1256.72V115.436H1200.92V170.153ZM1259.72 170.153H1315.53V115.436H1259.72V170.153ZM1318.53 170.153H1374.34V115.436H1318.53V170.153ZM1377.34 170.153H1433.14V115.436H1377.34V170.153ZM83.5869 112.436H139.394V57.7178H83.5869V112.436ZM142.394 112.436H198.201V57.7178H142.394V112.436ZM201.201 112.436H257.008V57.7178H201.201V112.436ZM260.008 112.436H315.814V57.7178H260.008V112.436ZM318.814 112.436H374.621V57.7178H318.814V112.436ZM377.621 112.436H433.428V57.7178H377.621V112.436ZM436.428 112.436H492.235V57.7178H436.428V112.436ZM495.235 112.436H551.042V57.7178H495.235V112.436ZM554.042 112.436H609.849V57.7178H554.042V112.436ZM612.849 112.436H668.655V57.7178H612.849V112.436ZM671.655 112.436H727.462V57.7178H671.655V112.436ZM730.462 112.436H786.269V57.7178H730.462V112.436ZM789.269 112.436H845.076V57.7178H789.269V112.436ZM848.076 112.436H903.883V57.7178H848.076V112.436ZM906.883 112.436H962.689V57.7178H906.883V112.436ZM965.689 112.436H1021.5V57.7178H965.689V112.436ZM1024.5 112.436H1080.3V57.7178H1024.5V112.436ZM1083.3 112.436H1139.11V57.7178H1083.3V112.436ZM1142.11 112.436H1197.92V57.7178H1142.11V112.436ZM1200.92 112.436H1256.72V57.7178H1200.92V112.436ZM1259.72 112.436H1315.53V57.7178H1259.72V112.436ZM1318.53 112.436H1374.34V57.7178H1318.53V112.436ZM1377.34 112.436H1433.14V57.7178H1377.34V112.436Z" fill="url(#paint0_linear_1_44)"/>
<defs>
<linearGradient id="paint0_linear_1_44" x1="372.5" y1="70.5" x2="1517" y2="542.697" gradientUnits="userSpaceOnUse">
<stop offset="0.36875" stop-color="white" stop-opacity="0"/>
<stop offset="1" stop-color="white"/>
</linearGradient>
</defs>
</svg>
