<svg width="60" height="60" viewBox="0 0 60 60" fill="none" xmlns="http://www.w3.org/2000/svg">
<mask id="mask0_5_277" style="mask-type:alpha" maskUnits="userSpaceOnUse" x="0" y="0" width="60" height="60">
<rect width="60" height="60" fill="#D9D9D9"/>
</mask>
<g mask="url(#mask0_5_277)">
<path d="M28.3125 28.75C26.9375 28.75 25.7604 28.2604 24.7812 27.2812C23.8021 26.3021 23.3125 25.125 23.3125 23.75V17.5C23.3125 16.125 23.8021 14.9479 24.7812 13.9688C25.7604 12.9896 26.9375 12.5 28.3125 12.5H47.5C48.875 12.5 50.0521 12.9896 51.0312 13.9688C52.0104 14.9479 52.5 16.125 52.5 17.5V23.75C52.5 25.125 52.0104 26.3021 51.0312 27.2812C50.0521 28.2604 48.875 28.75 47.5 28.75H28.3125ZM44.1875 47.5C42.8125 47.5 41.6354 47.0104 40.6562 46.0312C39.6771 45.0521 39.1875 43.875 39.1875 42.5V36.25C39.1875 34.875 39.6771 33.6979 40.6562 32.7188C41.6354 31.7396 42.8125 31.25 44.1875 31.25H47.5C48.875 31.25 50.0521 31.7396 51.0312 32.7188C52.0104 33.6979 52.5 34.875 52.5 36.25V42.5C52.5 43.875 52.0104 45.0521 51.0312 46.0312C50.0521 47.0104 48.875 47.5 47.5 47.5H44.1875ZM28.3125 47.5C26.9375 47.5 25.7604 47.0104 24.7812 46.0312C23.8021 45.0521 23.3125 43.875 23.3125 42.5V36.25C23.3125 34.875 23.8021 33.6979 24.7812 32.7188C25.7604 31.7396 26.9375 31.25 28.3125 31.25H31.6875C33.0625 31.25 34.2396 31.7396 35.2188 32.7188C36.1979 33.6979 36.6875 34.875 36.6875 36.25V42.5C36.6875 43.875 36.1979 45.0521 35.2188 46.0312C34.2396 47.0104 33.0625 47.5 31.6875 47.5H28.3125ZM12.5 47.5C11.125 47.5 9.94792 47.0104 8.96875 46.0312C7.98958 45.0521 7.5 43.875 7.5 42.5V17.5C7.5 16.125 7.98958 14.9479 8.96875 13.9688C9.94792 12.9896 11.125 12.5 12.5 12.5H15.8125C17.1875 12.5 18.3646 12.9896 19.3438 13.9688C20.3229 14.9479 20.8125 16.125 20.8125 17.5V42.5C20.8125 43.875 20.3229 45.0521 19.3438 46.0312C18.3646 47.0104 17.1875 47.5 15.8125 47.5H12.5Z" fill="white"/>
</g>
</svg>
